<?xml version="1.0" standalone="no"?>
<svg width="491.325" height="492.785" xmlns="http://www.w3.org/2000/svg" version="1.1">
  <path d="M 484.88 248.44 V 254.54 H 485.45 V 260.70 H 486.32 V 266.60 H 483.38 V 272.68 H 483.25 V 278.71 H 482.51 V 284.74 H 481.76 V 291.00 H 482.18 V 297.00 H 480.99 V 302.22 H 476.54 V 309.00 H 478.57 V 314.35 H 475.04 V 320.29 H 473.69 V 325.97 H 471.48 V 332.04 H 470.35 V 337.43 H 467.39 V 342.30 H 463.36 V 349.19 H 463.83 V 353.03 H 457.81 V 358.60 H 455.44 V 365.81 H 455.94 V 368.98 H 449.30 V 376.37 H 449.69 V 380.83 H 445.31 V 385.61 H 441.50 V 390.32 H 437.62 V 395.63 H 434.53 V 400.39 H 430.69 V 403.53 H 425.00 V 407.45 H 420.33 V 414.34 H 418.80 V 416.17 H 412.01 V 422.12 H 409.33 V 424.83 H 403.59 V 428.45 H 398.75 V 433.14 H 394.78 V 438.39 H 391.16 V 441.98 H 386.23 V 446.52 H 381.94 V 446.49 H 374.60 V 452.70 H 371.34 V 452.40 H 364.09 V 458.21 H 360.40 V 462.20 H 355.59 V 461.41 H 348.40 V 465.16 H 343.47 V 465.93 H 337.21 V 469.69 H 332.21 V 471.13 H 326.28 V 474.05 H 320.89 V 476.79 H 315.38 V 478.67 H 309.58 V 479.12 H 303.40 V 478.96 H 297.15 V 483.73 H 291.95 V 484.90 H 285.94 V 482.44 H 279.39 V 486.70 H 273.83 V 485.52 H 267.57 V 485.94 H 261.51 V 484.19 H 255.35 V 487.79 H 249.40 V 487.23 H 243.30 V 485.43 H 237.26 V 485.92 H 231.18 V 485.60 H 225.12 V 484.49 H 219.13 V 484.01 H 213.08 V 482.37 H 207.21 V 483.57 H 200.83 V 481.86 H 194.96 V 478.90 H 189.41 V 479.60 H 182.96 V 475.56 H 177.79 V 474.48 H 171.79 V 473.21 H 165.81 V 469.74 H 160.63 V 467.36 H 155.09 V 464.50 H 149.75 V 462.05 H 144.25 V 463.31 H 136.89 V 456.75 H 133.43 V 455.12 H 127.43 V 454.19 H 120.93 V 449.22 H 116.83 V 447.32 H 110.80 V 443.13 H 106.28 V 437.51 H 102.88 V 436.03 H 96.38 V 432.03 H 91.77 V 428.14 H 87.08 V 424.65 H 82.02 V 420.37 H 77.66 V 416.24 H 73.15 V 412.38 H 68.33 V 405.36 H 67.00 V 402.72 H 60.76 V 397.61 H 57.36 V 391.86 H 54.84 V 388.21 H 49.55 V 382.18 H 47.55 V 377.87 H 43.04 V 373.14 H 39.11 V 368.27 H 35.30 V 361.04 H 35.73 V 356.99 H 30.39 V 350.93 H 28.90 V 344.52 H 28.34 V 340.51 H 22.34 V 334.04 H 22.08 V 329.01 H 18.16 V 322.15 H 19.41 V 316.52 H 17.23 V 310.60 H 15.99 V 305.24 H 12.63 V 299.02 H 12.60 V 293.30 H 10.43 V 287.82 H 6.57 V 281.33 H 8.60 V 275.65 H 5.15 V 269.44 H 5.88 V 263.37 H 5.47 V 257.30 H 5.00 V 251.19 H 6.16 V 248.33 H 468.47 V 239.07 H 5.84 V 233.01 H 6.02 V 226.94 H 6.18 V 220.84 H 6.14 V 214.59 H 5.39 V 209.10 H 9.79 V 202.41 H 6.79 V 196.69 H 9.43 V 190.48 H 9.72 V 184.68 H 11.73 V 178.64 H 12.88 V 173.03 H 15.42 V 167.26 H 17.44 V 162.56 H 22.28 V 155.48 H 20.88 V 151.56 H 27.20 V 145.64 H 28.77 V 139.38 H 29.77 V 133.66 H 31.97 V 127.75 H 33.93 V 123.00 H 37.96 V 119.52 H 43.88 V 114.19 H 46.75 V 107.26 H 47.41 V 104.90 H 54.50 V 98.91 H 56.62 V 93.65 H 59.77 V 88.00 H 62.55 V 85.23 H 68.60 V 81.72 H 73.69 V 77.29 H 77.78 V 72.61 H 81.66 V 68.82 H 86.38 V 62.24 H 88.72 V 60.65 H 95.30 V 54.76 H 98.42 V 52.44 H 104.30 V 47.62 H 108.36 V 45.77 H 114.45 V 44.07 H 120.54 V 39.05 H 124.59 V 37.23 H 130.53 V 34.15 H 135.75 V 31.45 H 141.17 V 29.66 H 147.00 V 25.40 H 151.76 V 21.86 H 156.91 V 20.11 H 162.78 V 17.73 H 168.43 V 15.47 H 174.13 V 13.68 H 180.00 V 15.12 H 186.68 V 12.22 H 192.23 V 10.10 H 198.02 V 12.42 H 204.62 V 10.29 H 210.40 V 10.73 H 216.55 V 10.18 H 222.55 V 5.85 H 228.28 V 9.18 H 234.55 V 5.46 H 240.51 V 7.35 H 246.61 V 5.00 H 252.76 V 8.42 H 258.70 V 8.52 H 264.75 V 6.34 H 271.08 V 9.47 H 276.84 V 9.96 H 282.91 V 12.96 H 288.53 V 10.74 H 295.16 V 14.48 H 300.56 V 13.80 H 307.00 V 15.86 H 312.76 V 20.54 H 317.66 V 21.80 H 323.60 V 21.84 H 330.04 V 25.29 H 335.21 V 24.95 H 341.97 V 29.67 H 346.54 V 32.52 H 351.90 V 34.94 H 357.49 V 36.65 H 363.50 V 39.24 H 369.06 V 45.74 H 372.20 V 46.40 H 379.02 V 51.48 H 382.91 V 55.14 H 387.74 V 58.78 H 392.57 V 63.12 H 396.84 V 66.28 H 402.10 V 71.13 H 405.87 V 75.38 H 410.15 V 79.12 H 414.95 V 82.99 H 419.68 V 86.44 H 424.92 V 90.65 H 429.39 V 96.75 H 431.59 V 100.33 H 436.89 V 106.26 H 439.12 V 110.81 H 443.22 V 115.49 H 447.20 V 121.09 H 449.75 V 126.19 H 453.08 V 132.51 H 454.24 V 137.70 H 457.35 V 142.45 H 461.43 V 147.08 H 465.97 V 154.20 H 464.88 V 159.92 H 466.84 V 165.24 H 469.90 V 170.45 H 473.43 V 176.04 H 476.00 V 181.81 H 478.10 V 187.97 H 478.75 V 194.48 H 477.64 V 200.22 H 479.74 V 206.01 H 481.85 V 211.97 H 483.20 V 217.95 H 484.54 V 224.23 H 483.10 V 230.26 H 483.66 V 236.37 H 482.87 V 242.38 H 484.39 V 248.44 Z" fill="white" stroke="#00cc00" />
  <rect 
            x="22.08" y="248.33" width="446.39" height="85.71" 
            fill="#0000ff33" stroke="#0000ffaa" stroke-width="1"
            />
        
</svg>
